<svg width="114" height="50" viewBox="0 0 114 50" fill="none" xmlns="http://www.w3.org/2000/svg">
<path d="M36.4224 24.9765L34.7131 21.9421L36.7762 18.3642L34.2333 13.9565H29.1508L26.6111 18.3642L29.1508 22.7719H33.285L34.5274 24.9765H34.1509L32.7212 27.4562L32.9344 27.8233H29.0232L28.3349 26.6296H23.6757L21.3477 30.6701L23.6757 34.7106H28.3349L30.6662 30.6701L29.978 29.4764H33.886L34.1509 29.9358H37.0105L38.4402 27.4562L37.0105 24.9765H36.4224Z" fill="#1ECAD3"/>
<path d="M15.8379 28.2824H18.0625L19.174 26.3544L18.0625 24.4247H16.7378L13.7797 19.1743L14.6699 17.6296L13.2934 15.2422H10.5405L9.16406 17.6296L10.5405 20.017H12.3596L15.3355 25.2998L14.7264 26.3544L15.8379 28.2824Z" fill="#1ECAD3"/>
<path d="M30.5245 44.3523L26.5373 40.0838L26.8814 39.4853L25.4516 37.0057H22.5921L22.193 37.6996L18.5548 36.4153L19.1138 35.4448L16.8892 31.5887H12.4416L10.2186 35.4448L12.4416 39.3025H16.8892L17.7147 37.871L21.353 39.1553L21.1623 39.4853L22.0816 41.0802L19.4821 45.9132H18.9878C18.445 45.305 18.0944 44.9282 17.9361 44.8182C16.4546 43.7862 14.7324 44.113 14.2397 44.2375C10.8987 45.0835 8.9875 44.9718 8.56745 44.7017C7.70636 44.1485 7.72413 42.489 7.74998 41.9924C7.78553 41.3212 7.42203 40.6823 6.82427 40.3668C6.62233 40.2601 6.32345 40.0563 6.05204 39.6891C5.7467 39.2783 5.95349 38.806 5.95833 38.7963C6.09727 38.5148 6.09889 38.1768 5.96156 37.8953C5.82424 37.6122 5.55768 37.4052 5.25072 37.3421C4.7709 37.2435 4.69012 37.0461 4.66266 36.9798C4.54472 36.6967 4.6562 36.2713 4.70466 36.1759C5.19579 35.4885 5.36542 34.8253 5.19741 34.2559C5.0617 33.7966 4.72082 33.4407 4.241 33.2531C4.21515 33.2434 4.1893 33.2337 4.16345 33.2256C2.82254 32.8196 2.05838 32.3311 2.04546 31.8798C2.17147 31.6615 2.77084 31.0517 3.06649 30.7508C4.30562 29.4924 5.84686 27.9267 5.79678 26.1183C5.77254 25.2546 5.53021 24.2145 5.2491 23.0111C4.73213 20.7935 4.08752 18.0341 4.44617 14.9657C4.68851 12.8856 6.12312 9.57621 9.36069 7.09659C11.3866 5.54703 14.9489 3.73705 20.466 3.8341L21.8538 6.24094H22.92V10.9236H22.2237L21.4677 12.2354L16.8278 10.5968L17.0507 10.2087L15.7793 8.00562H13.238L11.9682 10.2087L13.238 12.4133H15.7793L15.9877 12.0526L20.781 13.7445L22.2237 16.2468H25.2949L26.8313 13.5844L25.2949 10.922H24.5711V6.23932H25.4532L27.2546 3.11755L25.4548 -0.000976562H21.8554L20.8198 1.79606C14.5482 1.61167 10.456 3.68853 8.12318 5.47424C4.37994 8.33883 2.72238 12.1335 2.42027 14.7295C2.01961 18.1538 2.73853 21.2319 3.26197 23.4786C3.51723 24.5736 3.73856 25.5182 3.75633 26.1766C3.78218 27.1131 2.47681 28.4394 1.61249 29.3177C0.735245 30.209 0.101947 30.8527 0.0179385 31.5968C-0.150079 33.1027 0.862874 34.2479 3.02772 35.0065C2.67068 35.516 2.35403 36.679 2.75469 37.7109C2.90493 38.0975 3.21674 38.6135 3.85327 38.9806C3.81611 39.5209 3.90658 40.2277 4.41548 40.9103C4.84845 41.4926 5.32988 41.8598 5.70469 42.0814C5.66592 43.343 5.87594 45.4037 7.46888 46.4244C9.06181 47.4466 12.7114 46.7349 14.7437 46.2206C15.0216 46.151 15.9812 45.9634 16.7502 46.4826C16.8181 46.5538 17.0443 46.8077 17.2236 47.0083L16.6371 48.0257L17.8553 50.0006H20.2899L21.508 48.0257L20.8441 46.8756L23.4855 41.9649H25.4548L25.6778 41.58L29.2562 45.4118L28.2788 47.1069L29.8669 49.999H33.0431L34.6328 47.1069L33.0431 44.3523H30.5277H30.5245Z" fill="#1ECAD3"/>
<path d="M32.174 36.0869L31.0625 38.0166L32.174 39.9446H34.3986L35.5101 38.0166L34.3986 36.0869H32.174Z" fill="#1ECAD3"/>
<path d="M34.2055 9.91609L35.8469 7.06929L34.2055 4.22412H30.9227L29.2812 7.06929L30.9227 9.91609H34.2055Z" fill="#1ECAD3"/>
<path d="M20.1797 21.5781L21.1862 23.3234H23.1975L24.204 21.5781L23.1975 19.8345H21.1862L20.1797 21.5781Z" fill="#1ECAD3"/>
<path d="M47.8059 14.6922H44.4827L42.5828 11.1596L43.4068 9.73297L42.1353 7.52832H39.594L38.3242 9.73297L39.594 11.936H41.1256L42.8688 15.1758L40.8186 18.7311L43.1483 22.7716H47.8059L50.1372 18.7311L47.8059 14.6922Z" fill="#1ECAD3"/>
<path d="M43.6601 27.2067H40.9541L40.9492 41.9615H50.1482V39.2538H43.6601V27.2067ZM52.578 41.9632H55.284V27.2067H52.578V41.9632ZM67.4508 35.6371L57.7171 27.1663V41.9615H60.4263V33.5101L70.1552 41.9955V27.2051H67.4508V35.6355V35.6371ZM79.2718 34.149L79.519 33.8918L85.9392 27.2084H82.0538L76.3735 33.0977V35.2554L82.2493 41.9664H86.2752L79.5109 34.4192L79.2734 34.1507L79.2718 34.149ZM72.5899 41.9599H75.2927V27.2051H72.5899V41.9599ZM93.4127 26.7781C88.9037 26.7781 85.3721 30.1781 85.3721 34.5194C85.3721 36.6222 86.1944 38.5745 87.6872 40.0173C89.1865 41.465 91.2188 42.2592 93.4127 42.2592C97.9476 42.2592 101.5 38.8592 101.5 34.5178C101.5 30.1765 97.9492 26.7765 93.4127 26.7765V26.7781ZM93.437 39.2716C90.6534 39.2716 88.7826 37.3614 88.7826 34.5194C88.7826 31.6775 90.697 29.7656 93.437 29.7656C96.177 29.7656 98.0914 31.7648 98.0914 34.5194C98.0914 37.274 96.177 39.2716 93.437 39.2716ZM109.911 33.3791L108.021 32.6173C107.08 32.2436 106.226 31.8878 106.226 30.9755C106.226 30.0632 107.085 29.5117 108.208 29.5004H108.256C110.182 29.5004 111.954 30.5194 112.704 31.0143L114 28.525C113.308 28.0446 111.192 26.77 108.161 26.77H108.092H108.09C106.594 26.77 105.242 27.1938 104.279 27.9621C103.306 28.7353 102.793 29.7947 102.793 31.0224C102.793 32.9149 104.003 34.2687 106.715 35.4026L108.408 36.1143C109.554 36.5898 110.449 36.9036 110.449 37.9162C110.449 38.6117 109.95 39.511 108.235 39.511C105.788 39.511 104.043 38.5179 103.306 38.0407L102.176 40.3537C102.804 40.8535 104.862 42.2656 108.234 42.2656C109.838 42.2656 111.274 41.8354 112.281 41.0557C113.324 40.2502 113.875 39.105 113.875 37.7512C113.875 35.7698 112.728 34.5016 109.909 33.3791H109.911Z" fill="#1ECAD3"/>
<path d="M49.3463 49.9956H48.2493L47.9876 49.3389H46.0295L45.763 49.9956H44.666L47.0134 45.3081L49.3479 49.9956H49.3463ZM47.5805 48.3813L47.0118 47.2442L46.4431 48.3813H47.5789H47.5805Z" fill="#FAC108"/>
<path d="M50.168 49.9955V49.0638H51.5622C52.0695 49.0557 52.3231 48.7969 52.3231 48.289C52.3231 47.7811 52.0662 47.5401 51.5541 47.532L50.7189 47.5191L51.5283 46.2461H50.1696V45.3096H53.2327L52.3102 46.7621C52.9403 47.0484 53.2537 47.5579 53.2537 48.289C53.2537 48.8551 53.0566 49.2983 52.664 49.6202C52.3441 49.8709 51.9758 49.9971 51.5622 49.9971H50.168V49.9955Z" fill="#FAC108"/>
<path d="M60.4141 49.9955V49.0638H61.8083C62.3156 49.0557 62.5692 48.7969 62.5692 48.289C62.5692 47.7811 62.3123 47.5401 61.8002 47.532L60.965 47.5191L61.7744 46.2461H60.4157V45.3096H63.4788L62.5563 46.7621C63.1864 47.0484 63.4998 47.5579 63.4998 48.289C63.4998 48.8551 63.3027 49.2983 62.9101 49.6202C62.5902 49.8709 62.2219 49.9971 61.8083 49.9971H60.4141V49.9955Z" fill="#FAC108"/>
<path d="M58.2603 49.9956H57.1634L56.9017 49.3389H54.9436L54.677 49.9956H53.5801L55.9275 45.3081L58.262 49.9956H58.2603ZM56.4945 48.3813L55.9259 47.2442L55.3572 48.3813H56.4929H56.4945Z" fill="#FAC108"/>
<path d="M67.9044 45.3081V49.9956H66.969V48.1145H65.4003V49.9956H64.4648V45.3081H65.4003V47.1763H66.969V45.3081H67.9044Z" fill="#FAC108"/>
<path d="M77.6622 45.3081V49.9956H76.7268V48.1145H75.1581V49.9956H74.2227V45.3081H75.1581V47.1763H76.7268V45.3081H77.6622Z" fill="#FAC108"/>
<path d="M73.4244 49.9956H72.3274L72.0657 49.3389H70.1077L69.8411 49.9956H68.7441L71.0915 45.3081L73.426 49.9956H73.4244ZM71.6586 48.3813L71.0899 47.2442L70.5213 48.3813H71.657H71.6586Z" fill="#FAC108"/>
<path d="M44.3807 48.2895C44.3807 47.8236 44.253 47.4484 43.9978 47.1637C43.9364 47.0925 43.8669 47.0262 43.791 46.9631C43.4711 46.7124 43.1028 46.5863 42.6892 46.5863H41.8846V46.2272H43.7764L44.3597 45.3101H41.8717V45.3133H40.9492V50.0008H41.8846V49.9976H42.6892C43.1028 49.9976 43.4695 49.8714 43.791 49.6207C43.8669 49.5592 43.9364 49.4913 43.9978 49.4201C44.253 49.1354 44.3807 48.7602 44.3807 48.2943C44.3807 48.2943 44.3807 48.2943 44.3807 48.2927C44.3807 48.2911 44.3807 48.2927 44.3807 48.2911V48.2895ZM43.442 48.4205C43.4 48.8313 43.1464 49.0416 42.6795 49.0497L41.8846 49.0626V47.5196L42.6795 47.5325C43.1464 47.5406 43.4 47.7509 43.442 48.1617C43.4469 48.2038 43.4485 48.2458 43.4485 48.2911C43.4485 48.3364 43.4452 48.3784 43.442 48.4205Z" fill="#FAC108"/>
<path d="M82.201 48.2891C82.201 47.8233 82.0733 47.4481 81.8181 47.1634C81.7567 47.0922 81.6872 47.0259 81.6113 46.9628C81.2914 46.7121 80.9231 46.5859 80.5095 46.5859H79.7049L79.692 45.3081L78.7695 45.3113V49.9988H79.7049V49.9956H80.5095C80.9231 49.9956 81.2898 49.8694 81.6113 49.6187C81.6872 49.5573 81.7567 49.4893 81.8181 49.4182C82.0733 49.1335 82.201 48.7582 82.201 48.2924C82.201 48.2924 82.201 48.2924 82.201 48.2908C82.201 48.2891 82.201 48.2908 82.201 48.2891ZM81.2639 48.4202C81.2219 48.831 80.9683 49.0413 80.5014 49.0494L79.7066 49.0623V47.5192L80.5014 47.5322C80.9683 47.5402 81.2219 47.7505 81.2639 48.1614C81.2688 48.2034 81.2704 48.2455 81.2704 48.2908C81.2704 48.3361 81.2672 48.3781 81.2639 48.4202Z" fill="#FAC108"/>
</svg>
