<svg width="114" height="50" viewBox="0 0 114 50" fill="none" xmlns="http://www.w3.org/2000/svg">
<path d="M36.4214 24.9764L34.7122 21.942L36.7752 18.3641L34.2324 13.9564H29.1498L26.6102 18.3641L29.1498 22.7717H33.284L34.5264 24.9764H34.15L32.7202 27.456L32.9335 27.8232H29.0222L28.334 26.6295H23.6747L21.3467 30.67L23.6747 34.7105H28.334L30.6652 30.67L29.977 29.4763H33.885L34.15 29.9356H37.0095L38.4393 27.456L37.0095 24.9764H36.4214Z" fill="#1ECAD3"/>
<path d="M15.8377 28.2825H18.0623L19.1738 26.3545L18.0623 24.4248H16.7375L13.7794 19.1744L14.6696 17.6297L13.2932 15.2423H10.5402L9.1638 17.6297L10.5402 20.0171H12.3594L15.3352 25.2999L14.7262 26.3545L15.8377 28.2825Z" fill="#1ECAD3"/>
<path d="M30.5245 44.3523L26.5373 40.0838L26.8814 39.4853L25.4516 37.0057H22.5921L22.193 37.6996L18.5548 36.4153L19.1138 35.4448L16.8892 31.5887H12.4416L10.2186 35.4448L12.4416 39.3025H16.8892L17.7147 37.871L21.353 39.1553L21.1623 39.4853L22.0816 41.0802L19.4821 45.9132H18.9878C18.445 45.3051 18.0944 44.9282 17.9361 44.8182C16.4546 43.7862 14.7324 44.113 14.2397 44.2375C10.8987 45.0835 8.9875 44.9719 8.56745 44.7017C7.70636 44.1485 7.72413 42.489 7.74998 41.9924C7.78553 41.3212 7.42203 40.6823 6.82427 40.3668C6.62233 40.2601 6.32345 40.0563 6.05204 39.6891C5.7467 39.2783 5.95349 38.806 5.95833 38.7963C6.09727 38.5148 6.09889 38.1768 5.96156 37.8953C5.82424 37.6122 5.55768 37.4052 5.25072 37.3421C4.7709 37.2435 4.69012 37.0461 4.66266 36.9798C4.54472 36.6967 4.6562 36.2713 4.70466 36.1759C5.19579 35.4885 5.36542 34.8253 5.19741 34.2559C5.0617 33.7966 4.72082 33.4407 4.241 33.2531C4.21515 33.2434 4.1893 33.2337 4.16345 33.2256C2.82254 32.8196 2.05838 32.3311 2.04546 31.8798C2.17147 31.6615 2.77084 31.0517 3.06649 30.7508C4.30562 29.4924 5.84686 27.9267 5.79678 26.1183C5.77254 25.2546 5.53021 24.2145 5.2491 23.0111C4.73213 20.7935 4.08752 18.0341 4.44617 14.9657C4.68851 12.8856 6.12312 9.57621 9.36069 7.09659C11.3866 5.54703 14.9489 3.73705 20.466 3.8341L21.8538 6.24094H22.92V10.9236H22.2237L21.4677 12.2354L16.8278 10.5968L17.0507 10.2087L15.7793 8.00562H13.238L11.9682 10.2087L13.238 12.4133H15.7793L15.9877 12.0526L20.781 13.7445L22.2237 16.2468H25.2949L26.8313 13.5844L25.2949 10.922H24.5711V6.23932H25.4532L27.2546 3.11755L25.4548 -0.000976562H21.8554L20.8198 1.79606C14.5482 1.61167 10.456 3.68853 8.12318 5.47424C4.37994 8.33883 2.72238 12.1335 2.42027 14.7295C2.01961 18.1538 2.73853 21.2319 3.26197 23.4786C3.51723 24.5736 3.73856 25.5182 3.75633 26.1766C3.78218 27.1131 2.47681 28.4394 1.61249 29.3177C0.735245 30.209 0.101947 30.8527 0.0179385 31.5968C-0.150079 33.1027 0.862874 34.2479 3.02772 35.0065C2.67068 35.516 2.35403 36.679 2.75469 37.7109C2.90493 38.0975 3.21674 38.6135 3.85327 38.9806C3.81611 39.5209 3.90658 40.2277 4.41548 40.9103C4.84845 41.4926 5.32988 41.8598 5.70469 42.0814C5.66592 43.343 5.87594 45.4037 7.46888 46.4244C9.06181 47.4466 12.7114 46.7349 14.7437 46.2206C15.0216 46.151 15.9812 45.9634 16.7502 46.4826C16.8181 46.5538 17.0443 46.8077 17.2236 47.0083L16.6371 48.0257L17.8553 50.0006H20.2899L21.508 48.0257L20.8441 46.8756L23.4855 41.9649H25.4548L25.6778 41.58L29.2562 45.4118L28.2788 47.1069L29.8669 49.999H33.0431L34.6328 47.1069L33.0431 44.3523H30.5245Z" fill="#1ECAD3"/>
<path d="M32.1741 36.087L31.0626 38.0166L32.1741 39.9447H34.3988L35.5103 38.0166L34.3988 36.087H32.1741Z" fill="#1ECAD3"/>
<path d="M34.2049 9.91588L35.8463 7.06909L34.2049 4.22392H30.9221L29.2807 7.06909L30.9221 9.91588H34.2049Z" fill="#1ECAD3"/>
<path d="M20.1803 21.578L21.1868 23.3233H23.1981L24.2046 21.578L23.1981 19.8344H21.1868L20.1803 21.578Z" fill="#1ECAD3"/>
<path d="M47.8062 14.6923H44.4831L42.5832 11.1597L43.4071 9.73311L42.1357 7.52846H39.5944L38.3246 9.73311L39.5944 11.9361H41.1259L42.8691 15.176L40.819 18.7312L43.1486 22.7717H47.8062L50.1375 18.7312L47.8062 14.6923Z" fill="#1ECAD3"/>
<path d="M43.6607 27.2069H40.9547L40.9498 41.9617H50.1488V39.254H43.6607V27.2069ZM52.5786 41.9633H55.2847V27.2069H52.5786V41.9633ZM67.4514 35.6373L57.7177 27.1665V41.9617H60.427V33.5103L70.1558 41.9957V27.2053H67.4514V35.6373ZM79.2724 34.1492L85.9398 27.2085H82.0544L76.3741 33.0978V35.2556L82.2499 41.9665H86.2758L79.5115 34.4193L79.274 34.1508L79.2724 34.1492ZM72.5905 41.9601H75.2933V27.2053H72.5905V41.9601ZM93.4134 26.7783C88.9044 26.7783 85.3727 30.1782 85.3727 34.5196C85.3727 36.6223 86.1951 38.5747 87.6878 40.0175C89.1871 41.4651 91.2194 42.2593 93.4134 42.2593C97.9482 42.2593 101.501 38.8593 101.501 34.518C101.501 30.1766 97.9498 26.7767 93.4134 26.7767V26.7783ZM93.4376 39.2718C90.654 39.2718 88.7832 37.3615 88.7832 34.5196C88.7832 31.6777 90.6976 29.7658 93.4376 29.7658C96.1776 29.7658 98.092 31.765 98.092 34.5196C98.092 37.2742 96.1776 39.2718 93.4376 39.2718ZM109.911 33.3793L108.021 32.6174C107.081 32.2438 106.226 31.8879 106.226 30.9757C106.226 30.0634 107.086 29.5118 108.209 29.5005H108.257C110.183 29.5005 111.955 30.5195 112.705 31.0145L114 28.5252C113.309 28.0448 111.193 26.7702 108.162 26.7702H108.091C106.595 26.7702 105.242 27.194 104.28 27.9623C103.307 28.7354 102.793 29.7949 102.793 31.0226C102.793 32.915 104.003 34.2689 106.716 35.4028L108.409 36.1145C109.554 36.59 110.449 36.9038 110.449 37.9163C110.449 38.6119 109.95 39.5112 108.236 39.5112C105.789 39.5112 104.044 38.5181 103.307 38.0409L102.176 40.3539C102.805 40.8537 104.863 42.2658 108.234 42.2658C109.839 42.2658 111.275 41.8355 112.281 41.0559C113.325 40.2504 113.876 39.1052 113.876 37.7514C113.876 35.7699 112.729 34.5018 109.91 33.3793H109.911Z" fill="#1ECAD3"/>
<path d="M48.2505 49.9958L47.9888 49.3391H46.0308L45.7642 49.9958H44.6672L47.0146 45.3083L49.3491 49.9958H48.2505ZM47.5817 48.3815L47.013 47.2444L46.4443 48.3815H47.5817Z" fill="#FAC108"/>
<path d="M50.1682 49.0641H51.5624C52.0697 49.056 52.3233 48.7972 52.3233 48.2893C52.3233 47.7814 52.0665 47.5404 51.5543 47.5323L50.7191 47.5194L51.5285 46.2464H50.1698V45.3099H53.2329L52.3104 46.7624C52.9405 47.0487 53.2539 47.5582 53.2539 48.2893C53.2539 48.8555 53.0568 49.2986 52.6642 49.6205C52.3443 49.8712 51.976 49.9974 51.5624 49.9974H50.1682V49.0641Z" fill="#FAC108"/>
<path d="M60.4157 49.0641H61.8099C62.3172 49.056 62.5708 48.7972 62.5708 48.2893C62.5708 47.7814 62.3139 47.5404 61.8018 47.5323L60.9666 47.5194L61.776 46.2464H60.4173V45.3099H63.4804L62.5579 46.7624C63.1879 47.0487 63.5014 47.5582 63.5014 48.2893C63.5014 48.8555 63.3043 49.2986 62.9117 49.6205C62.5918 49.8712 62.2235 49.9974 61.8099 49.9974H60.4157V49.0641Z" fill="#FAC108"/>
<path d="M57.1635 49.9958L56.9018 49.3391H54.9438L54.6772 49.9958H53.5802L55.9276 45.3083L58.2621 49.9958H57.1635ZM56.4947 48.3815L55.926 47.2444L55.3573 48.3815H56.4947Z" fill="#FAC108"/>
<path d="M67.9054 45.3083V49.9958H66.97V48.1146H65.4013V49.9958H64.4659V45.3083H65.4013V47.1765H66.97V45.3083H67.9054Z" fill="#FAC108"/>
<path d="M77.6633 45.3083V49.9958H76.7279V48.1146H75.1592V49.9958H74.2238V45.3083H75.1592V47.1765H76.7279V45.3083H77.6633Z" fill="#FAC108"/>
<path d="M72.3288 49.9958L72.067 49.3391H70.109L69.8424 49.9958H68.7455L71.0928 45.3083L73.4273 49.9958H72.3288ZM71.6599 48.3815L71.0912 47.2444L70.5226 48.3815H71.6599Z" fill="#FAC108"/>
<path d="M44.3813 48.2895C44.3813 47.8236 44.2536 47.4484 43.9984 47.1637C43.937 47.0925 43.8675 47.0262 43.7916 46.9631C43.4717 46.7124 43.1034 46.5863 42.6898 46.5863H41.8852V46.2272H43.7771L44.3603 45.31H41.8723V45.3133H40.9498V50.0008H41.8852V49.9975H42.6898C43.1034 49.9975 43.4701 49.8714 43.7916 49.6207C43.8675 49.5592 43.937 49.4913 43.9984 49.4201C44.2536 49.1354 44.3813 48.7602 44.3813 48.2943V48.2895ZM43.4426 48.4205C43.4006 48.8313 43.147 49.0416 42.6801 49.0497L41.8852 49.0626V47.5195L42.6801 47.5325C43.147 47.5406 43.4006 47.7509 43.4426 48.1617C43.4475 48.2037 43.4491 48.2458 43.4491 48.2911C43.4491 48.3364 43.4459 48.3784 43.4426 48.4205Z" fill="#FAC108"/>
<path d="M82.2014 48.2893C82.2014 47.8235 82.0738 47.4482 81.8185 47.1636C81.7571 47.0924 81.6877 47.0261 81.6117 46.963C81.2919 46.7123 80.9235 46.5861 80.5099 46.5861H79.7054L79.6925 45.3083L78.77 45.3115V49.999H79.7054V49.9958H80.5099C80.9235 49.9958 81.2902 49.8696 81.6117 49.6189C81.6877 49.5574 81.7571 49.4895 81.8185 49.4183C82.0738 49.1337 82.2014 48.7584 82.2014 48.2926V48.2893ZM81.2644 48.4203C81.2224 48.8312 80.9687 49.0415 80.5018 49.0496L79.707 49.0625V47.5194L80.5018 47.5323C80.9687 47.5404 81.2224 47.7507 81.2644 48.1616C81.2692 48.2036 81.2709 48.2457 81.2709 48.291C81.2709 48.3362 81.2676 48.3783 81.2644 48.4203Z" fill="#FAC108"/>
</svg>
