<svg width="14" height="14" viewBox="0 0 14 14" fill="none" xmlns="http://www.w3.org/2000/svg">
<mask id="path-1-inside-1_518_14964" fill="white">
<path d="M0.125 0.125V13.875H13.875V0.125H0.125ZM1.375 1.375H12.625V12.625H1.375V1.375ZM4.30469 3.44531L3.42578 4.32422L6.10156 7L3.38672 9.71484L4.26562 10.5938L6.98047 7.87891L9.67578 10.5742L10.5547 9.69531L7.85938 7L10.5156 4.34375L9.63672 3.46484L6.98047 6.12109L4.30469 3.44531Z"/>
</mask>
<path d="M0.125 0.125V13.875H13.875V0.125H0.125ZM1.375 1.375H12.625V12.625H1.375V1.375ZM4.30469 3.44531L3.42578 4.32422L6.10156 7L3.38672 9.71484L4.26562 10.5938L6.98047 7.87891L9.67578 10.5742L10.5547 9.69531L7.85938 7L10.5156 4.34375L9.63672 3.46484L6.98047 6.12109L4.30469 3.44531Z" fill="black"/>
<path d="M0.125 0.125V-1.375H-1.375V0.125H0.125ZM0.125 13.875H-1.375V15.375H0.125V13.875ZM13.875 13.875V15.375H15.375V13.875H13.875ZM13.875 0.125H15.375V-1.375H13.875V0.125ZM1.375 1.375V-0.125H-0.125V1.375H1.375ZM12.625 1.375H14.125V-0.125H12.625V1.375ZM12.625 12.625V14.125H14.125V12.625H12.625ZM1.375 12.625H-0.125V14.125H1.375V12.625ZM4.30469 3.44531L5.36535 2.38465L4.30469 1.32399L3.24403 2.38465L4.30469 3.44531ZM3.42578 4.32422L2.36512 3.26356L1.30446 4.32422L2.36512 5.38488L3.42578 4.32422ZM6.10156 7L7.16222 8.06066L8.22288 7L7.16222 5.93934L6.10156 7ZM3.38672 9.71484L2.32606 8.65418L1.2654 9.71484L2.32606 10.7755L3.38672 9.71484ZM4.26562 10.5938L3.20496 11.6544L4.26562 12.7151L5.32629 11.6544L4.26562 10.5938ZM6.98047 7.87891L8.04113 6.81825L6.98047 5.75759L5.91981 6.81825L6.98047 7.87891ZM9.67578 10.5742L8.61512 11.6349L9.67578 12.6955L10.7364 11.6349L9.67578 10.5742ZM10.5547 9.69531L11.6153 10.756L12.676 9.69531L11.6153 8.63465L10.5547 9.69531ZM7.85938 7L6.79871 5.93934L5.73805 7L6.79871 8.06066L7.85938 7ZM10.5156 4.34375L11.5763 5.40441L12.6369 4.34375L11.5763 3.28309L10.5156 4.34375ZM9.63672 3.46484L10.6974 2.40418L9.63672 1.34352L8.57606 2.40418L9.63672 3.46484ZM6.98047 6.12109L5.91981 7.18175L6.98047 8.24241L8.04113 7.18175L6.98047 6.12109ZM0.125 0.125H-1.375V13.875H0.125H1.625V0.125H0.125ZM0.125 13.875V15.375H13.875V13.875V12.375H0.125V13.875ZM13.875 13.875H15.375V0.125H13.875H12.375V13.875H13.875ZM13.875 0.125V-1.375H0.125V0.125V1.625H13.875V0.125ZM1.375 1.375V2.875H12.625V1.375V-0.125H1.375V1.375ZM12.625 1.375H11.125V12.625H12.625H14.125V1.375H12.625ZM12.625 12.625V11.125H1.375V12.625V14.125H12.625V12.625ZM1.375 12.625H2.875V1.375H1.375H-0.125V12.625H1.375ZM4.30469 3.44531L3.24403 2.38465L2.36512 3.26356L3.42578 4.32422L4.48644 5.38488L5.36535 4.50597L4.30469 3.44531ZM3.42578 4.32422L2.36512 5.38488L5.0409 8.06066L6.10156 7L7.16222 5.93934L4.48644 3.26356L3.42578 4.32422ZM6.10156 7L5.0409 5.93934L2.32606 8.65418L3.38672 9.71484L4.44738 10.7755L7.16222 8.06066L6.10156 7ZM3.38672 9.71484L2.32606 10.7755L3.20496 11.6544L4.26562 10.5938L5.32629 9.53309L4.44738 8.65418L3.38672 9.71484ZM4.26562 10.5938L5.32629 11.6544L8.04113 8.93957L6.98047 7.87891L5.91981 6.81825L3.20496 9.53309L4.26562 10.5938ZM6.98047 7.87891L5.91981 8.93957L8.61512 11.6349L9.67578 10.5742L10.7364 9.51356L8.04113 6.81825L6.98047 7.87891ZM9.67578 10.5742L10.7364 11.6349L11.6153 10.756L10.5547 9.69531L9.49403 8.63465L8.61512 9.51356L9.67578 10.5742ZM10.5547 9.69531L11.6153 8.63465L8.92004 5.93934L7.85938 7L6.79871 8.06066L9.49403 10.756L10.5547 9.69531ZM7.85938 7L8.92004 8.06066L11.5763 5.40441L10.5156 4.34375L9.45496 3.28309L6.79871 5.93934L7.85938 7ZM10.5156 4.34375L11.5763 3.28309L10.6974 2.40418L9.63672 3.46484L8.57606 4.5255L9.45496 5.40441L10.5156 4.34375ZM9.63672 3.46484L8.57606 2.40418L5.91981 5.06043L6.98047 6.12109L8.04113 7.18175L10.6974 4.5255L9.63672 3.46484ZM6.98047 6.12109L8.04113 5.06043L5.36535 2.38465L4.30469 3.44531L3.24403 4.50597L5.91981 7.18175L6.98047 6.12109Z" fill="#515357" mask="url(#path-1-inside-1_518_14964)"/>
</svg>
