<svg width="10" height="12" viewBox="0 0 10 12" fill="none" xmlns="http://www.w3.org/2000/svg">
<path d="M5 7C4.47245 7 3.96688 7.09112 3.49707 7.25684L4.08398 7.00488L3.34375 6.50293C3.81789 6.81637 4.38627 7 5 7ZM5 7C5.52787 7 6.03385 7.09093 6.50391 7.25684L5.91602 7.00488L6.65723 6.50293C6.18295 6.81665 5.61402 7 5 7ZM6.78125 6.41309C6.79808 6.40056 6.81548 6.38884 6.83203 6.37598C6.81541 6.38878 6.79814 6.40062 6.78125 6.41309ZM3.16895 6.37598C3.18551 6.38884 3.20289 6.40057 3.21973 6.41309C3.20283 6.40063 3.18557 6.38878 3.16895 6.37598ZM7.88574 4.81641C7.90019 4.7655 7.91303 4.71404 7.92481 4.66211C7.91318 4.71414 7.90002 4.76546 7.88574 4.81641ZM2.0752 4.66211C2.08699 4.71413 2.10076 4.76541 2.11523 4.81641C2.10093 4.76537 2.08684 4.71423 2.0752 4.66211ZM7.99121 4.22461C7.9925 4.20738 7.99412 4.19015 7.99512 4.17285C7.99414 4.19016 7.99247 4.20738 7.99121 4.22461ZM2.00586 4.17285C2.00685 4.19014 2.0075 4.2074 2.00879 4.22461C2.00753 4.2074 2.00683 4.19014 2.00586 4.17285ZM2.01563 3.69238C2.00523 3.79355 2 3.89618 2 4C2 3.8961 2.00543 3.79349 2.01563 3.69238ZM7.98438 3.69238C7.99457 3.79349 8 3.8961 8 4C8 3.89684 7.99464 3.79487 7.98438 3.69434L7.98438 3.69238Z" fill="#239296" stroke="#239296"/>
</svg>
