<svg width="16" height="12" viewBox="0 0 16 12" fill="none" xmlns="http://www.w3.org/2000/svg">
<path d="M7.69922 6.39974C7.877 6.53307 8.1217 6.53307 8.29948 6.39974L14.166 1.99935L14.166 10.5L1.83268 10.5L1.83268 1.99935L7.69922 6.39974ZM7.99935 5.375L2.83268 1.5L13.166 1.5L7.99935 5.375ZM0.832683 11C0.832683 11.2761 1.05654 11.5 1.33268 11.5L14.666 11.5C14.9422 11.5 15.166 11.2761 15.166 11L15.166 1C15.166 0.723858 14.9422 0.5 14.666 0.5L1.33268 0.500001L1.28125 0.502605C1.02927 0.528353 0.832682 0.741224 0.832682 1L0.832683 11Z" fill="#4D4D4D"/>
</svg>
